<svg width="370" height="527" viewBox="0 0 370 527" fill="none" xmlns="http://www.w3.org/2000/svg">
<path d="M30.1705 526.783C17.9716 526.982 7.87758 523.696 2.76977 512.619C0.811681 508.373 0.123431 503.255 0.119449 498.534C-0.0115959 343.111 0.0111127 187.688 0.0111628 32.2653C0.0111637 29.9126 -0.0174221 27.5595 0.0168918 25.2073C0.222448 11.1162 11.0097 0.35298 25.5893 0.128504C40.0142 -0.0935853 54.4455 0.0699566 68.8739 0.0669022C86.9475 0.0630759 105.023 -0.107714 123.094 0.111767C138.261 0.295975 147.697 6.77772 150.929 19.3852C152.149 24.1441 152.115 29.2734 152.147 34.2368C152.281 55.218 165.411 67.9937 187.134 67.9984C237.709 68.0092 288.286 67.9181 338.86 68.1203C344.339 68.1422 350.183 68.9337 355.206 70.9165C364.662 74.6497 369.986 81.9071 369.988 92.156C370.004 199.79 370.001 307.425 369.995 415.059C369.994 427.546 358.84 438.476 346.012 438.545C337.203 438.593 328.394 438.499 319.585 438.565C296.213 438.739 280.003 454.579 279.752 477.262C279.646 486.798 279.763 496.379 278.848 505.855C277.663 518.116 267.006 526.782 254.329 526.782C179.757 526.782 105.185 526.782 30.1705 526.783Z" fill="#D9D9D9"/>
</svg>
